<svg width="58.000000" height="58.000000" viewBox="0 0 58 58" fill="none" xmlns="http://www.w3.org/2000/svg" xmlns:xlink="http://www.w3.org/1999/xlink">
	<desc>
			Created with Pixso.
	</desc>
	<defs>
		<clipPath id="clip23_2">
			<rect id="svg-gobbler 1" width="58.000000" height="58.000000" fill="white" fill-opacity="0"/>
		</clipPath>
	</defs>
	<rect id="svg-gobbler 1" width="58.000000" height="58.000000" fill="#FFFFFF" fill-opacity="0"/>
	<g clip-path="url(#clip23_2)">
		<path id="Vector" d="M57.103 11.7017L57.103 54.4722C57.103 55.931 55.9253 57.103 54.4663 57.103L3.53369 57.103C2.07471 57.103 0.896973 55.931 0.896973 54.4722L0.896973 11.7017L57.103 11.7017Z" fill="#FFFFFF" fill-opacity="1.000000" fill-rule="nonzero"/>
		<path id="Vector" d="M57.103 3.53381L57.103 11.7017L0.896973 11.7017L0.896973 3.53381C0.896973 2.07483 2.07471 0.896973 3.53369 0.896973L54.4663 0.896973C55.9253 0.896973 57.103 2.07483 57.103 3.53381Z" fill="#38BFF2" fill-opacity="1.000000" fill-rule="nonzero"/>
		<path id="Vector" d="M8.11719 6.29651C8.11719 7.05762 7.49951 7.67554 6.73828 7.67554C5.97705 7.67554 5.35938 7.05774 5.35938 6.29651C5.35938 5.53528 5.97705 4.9231 6.73828 4.9231C7.49951 4.9231 8.11719 5.5354 8.11719 6.29651Z" fill="#D7E9FF" fill-opacity="1.000000" fill-rule="nonzero"/>
		<path id="Vector" d="M13.9482 6.29651C13.9482 7.05762 13.3306 7.67554 12.5693 7.67554C11.8081 7.67554 11.1904 7.05774 11.1904 6.29651C11.1904 5.53528 11.8081 4.9231 12.5693 4.9231C13.3306 4.9231 13.9482 5.5354 13.9482 6.29651Z" fill="#D7E9FF" fill-opacity="1.000000" fill-rule="nonzero"/>
		<path id="Vector" d="M19.7788 6.29651C19.7788 7.05762 19.1611 7.67554 18.3999 7.67554C17.6387 7.67554 17.021 7.05774 17.021 6.29651C17.021 5.53528 17.6387 4.9231 18.3999 4.9231C19.1611 4.9231 19.7788 5.5354 19.7788 6.29651Z" fill="#D7E9FF" fill-opacity="1.000000" fill-rule="nonzero"/>
		<path id="Vector" d="M52.6406 6.29565C52.6406 7.05725 52.0181 7.67236 51.2563 7.67236L36.6616 7.67236C35.9004 7.67236 35.2852 7.05725 35.2852 6.29565C35.2852 5.53406 35.9004 4.92627 36.6616 4.92627L51.2563 4.92627C52.0181 4.92627 52.6406 5.53406 52.6406 6.29565Z" fill="#D7E9FF" fill-opacity="1.000000" fill-rule="nonzero"/>
		<path id="Vector" d="M54.4658 0.29895L3.53369 0.29895C1.75 0.29895 0.298828 1.75 0.298828 3.53394L0.298828 54.4722C0.298828 56.2526 1.75 57.701 3.53369 57.701L54.4658 57.701C56.25 57.701 57.7012 56.2527 57.7012 54.4722C57.7012 48.0721 57.7012 11.123 57.7012 3.53394C57.7012 1.75 56.25 0.29895 54.4658 0.29895ZM1.49463 3.53394C1.49463 2.40955 2.40967 1.49487 3.53369 1.49487L54.4658 1.49487C55.5898 1.49487 56.5049 2.40955 56.5049 3.53394L56.5049 11.1036L1.49463 11.1036L1.49463 3.53394ZM56.5049 54.4722C56.5049 55.593 55.5898 56.5051 54.4658 56.5051L3.53369 56.5051C2.40967 56.5051 1.49463 55.593 1.49463 54.4722L1.49463 12.2996L56.5049 12.2996L56.5049 54.4722Z" fill="#1A2E35" fill-opacity="1.000000" fill-rule="nonzero"/>
		<path id="Vector" d="M8.09521 35.0121C9.25537 35.0121 10.1992 35.9456 10.1992 37.0927L10.1992 42.3091C10.1992 44.1283 11.6689 45.6085 13.4751 45.6085C13.8057 45.6085 14.0728 45.3408 14.0728 45.0106C14.0728 44.6804 13.8057 44.4127 13.4751 44.4127C12.3281 44.4127 11.395 43.4691 11.395 42.3091L11.395 37.0927C11.395 35.9775 10.8311 34.9908 9.97168 34.3987C10.8174 33.7979 11.3716 32.8138 11.3716 31.7126L11.3716 26.4958C11.3716 25.3358 12.3047 24.3922 13.4521 24.3922C13.7827 24.3922 14.0503 24.1245 14.0503 23.7943C14.0503 23.4641 13.7827 23.1964 13.4521 23.1964C11.6455 23.1964 10.1758 24.6766 10.1758 26.4958L10.1758 31.7126C10.1758 32.8542 9.23828 33.7979 8.08594 33.8163C7.30029 33.8287 7.31104 35.0121 8.09521 35.0121Z" fill="#1A2E35" fill-opacity="1.000000" fill-rule="nonzero"/>
		<path id="Vector" d="M46.6045 37.0927L46.6045 42.3091C46.6045 43.4691 45.6714 44.4127 44.5244 44.4127C44.1943 44.4127 43.9268 44.6804 43.9268 45.0106C43.9268 45.3408 44.1943 45.6085 44.5244 45.6085C46.3306 45.6085 47.8003 44.1283 47.8003 42.3091L47.8003 37.0927C47.8003 35.9456 48.7441 35.0121 49.9043 35.0121C50.6895 35.0121 50.6982 33.8287 49.9136 33.8162C48.7617 33.7979 47.8237 32.8542 47.8237 31.7125L47.8237 26.4957C47.8237 24.6765 46.354 23.1963 44.5474 23.1963C44.2168 23.1963 43.9497 23.464 43.9497 23.7942C43.9497 24.1244 44.2168 24.3921 44.5474 24.3921C45.6948 24.3921 46.6279 25.3357 46.6279 26.4957L46.6279 31.7125C46.6279 32.8138 47.1821 33.7977 48.0283 34.3986C47.1689 34.9908 46.6045 35.9775 46.6045 37.0927Z" fill="#1A2E35" fill-opacity="1.000000" fill-rule="nonzero"/>
		<path id="Vector" d="M24.9854 44.7975C25.2935 44.9171 25.6396 44.7633 25.7588 44.4552L33.3569 24.7805C33.4761 24.4725 33.3223 24.1262 33.0146 24.0074C32.708 23.8885 32.3604 24.0419 32.2412 24.3496L24.6436 44.0243C24.5244 44.3323 24.6777 44.6786 24.9854 44.7975Z" fill="#1A2E35" fill-opacity="1.000000" fill-rule="nonzero"/>
		<path id="Vector" d="M40.9985 34.4115L34.1055 39.0702C33.8315 39.2552 33.7593 39.627 33.9448 39.9005C34.1299 40.1759 34.5034 40.2446 34.7744 40.0612L42.3994 34.908C42.752 34.6697 42.748 34.1538 42.4004 33.9176L34.7754 28.7446C34.5034 28.5596 34.1309 28.6305 33.9453 28.9038C33.7593 29.177 33.8306 29.5491 34.104 29.7344L40.9985 34.4115Z" fill="#1A2E35" fill-opacity="1.000000" fill-rule="nonzero"/>
		<path id="Vector" d="M15.5986 34.9064L23.1514 40.0596C23.4233 40.2455 23.7964 40.1753 23.9824 39.9025C24.1685 39.6298 24.0981 39.2577 23.8252 39.0715L16.9951 34.4115L23.8267 29.7327C24.0986 29.5461 24.168 29.1738 23.9819 28.9015C23.7949 28.629 23.4243 28.5596 23.1504 28.7458L15.5972 33.9188C15.4346 34.0304 15.3374 34.2155 15.3374 34.4128C15.3374 34.6101 15.4355 34.7952 15.5986 34.9064Z" fill="#1A2E35" fill-opacity="1.000000" fill-rule="nonzero"/>
		<path id="Vector" d="M6.73877 4.32507C5.64893 4.32507 4.76221 5.20947 4.76221 6.29639C4.76221 7.3866 5.64941 8.27332 6.73877 8.27332C7.8291 8.27332 8.71582 7.3866 8.71582 6.29639C8.71582 5.20947 7.82861 4.32507 6.73877 4.32507ZM6.73877 7.07751C6.30859 7.07751 5.95801 6.72705 5.95801 6.29651C5.95801 5.86877 6.30859 5.52112 6.73877 5.52112C7.16943 5.52112 7.52002 5.8689 7.52002 6.29651C7.52002 6.72705 7.16943 7.07751 6.73877 7.07751Z" fill="#1A2E35" fill-opacity="1.000000" fill-rule="nonzero"/>
		<path id="Vector" d="M12.5693 4.32507C11.4795 4.32507 10.5923 5.20947 10.5923 6.29639C10.5923 7.3866 11.4795 8.27332 12.5693 8.27332C13.6592 8.27332 14.5459 7.3866 14.5459 6.29639C14.5459 5.20947 13.6592 4.32507 12.5693 4.32507ZM12.5693 7.07751C12.1387 7.07751 11.7881 6.72705 11.7881 6.29651C11.7881 5.86877 12.1387 5.52112 12.5693 5.52112C13 5.52112 13.3501 5.8689 13.3501 6.29651C13.3501 6.72705 13 7.07751 12.5693 7.07751Z" fill="#1A2E35" fill-opacity="1.000000" fill-rule="nonzero"/>
		<path id="Vector" d="M18.3999 4.32507C17.3101 4.32507 16.4229 5.20947 16.4229 6.29639C16.4229 7.3866 17.3101 8.27332 18.3999 8.27332C19.4897 8.27332 20.3765 7.3866 20.3765 6.29639C20.3765 5.20947 19.4897 4.32507 18.3999 4.32507ZM18.3999 7.07751C17.9692 7.07751 17.6187 6.72705 17.6187 6.29651C17.6187 5.86877 17.9692 5.52112 18.3999 5.52112C18.8306 5.52112 19.1807 5.8689 19.1807 6.29651C19.1807 6.72705 18.8306 7.07751 18.3999 7.07751Z" fill="#1A2E35" fill-opacity="1.000000" fill-rule="nonzero"/>
		<path id="Vector" d="M51.2563 4.32837L36.6616 4.32837C35.5728 4.32837 34.687 5.21094 34.687 6.29565C34.687 7.38464 35.5728 8.27039 36.6616 8.27039L51.2563 8.27039C52.3491 8.27039 53.2383 7.38464 53.2383 6.29565C53.2383 5.21094 52.3491 4.32837 51.2563 4.32837ZM51.2563 7.07458L36.6616 7.07458C36.2319 7.07458 35.8828 6.7251 35.8828 6.29565C35.8828 5.86316 36.2251 5.52429 36.6616 5.52429L51.2563 5.52429C51.6899 5.52429 52.0425 5.87024 52.0425 6.29565C52.0425 6.7251 51.6899 7.07458 51.2563 7.07458Z" fill="#1A2E35" fill-opacity="1.000000" fill-rule="nonzero"/>
	</g>
</svg>
