<svg width="69.278320" height="60.255249" viewBox="0 0 69.2783 60.2552" fill="none" xmlns="http://www.w3.org/2000/svg" xmlns:xlink="http://www.w3.org/1999/xlink">
	<desc>
			Created with Pixso.
	</desc>
	<defs/>
	<path id="Vector" d="M68.5566 3.65991L68.5566 39.2405L0.72168 39.2405L0.72168 3.65991C0.72168 2.04236 2.01318 0.732178 3.6084 0.732178L65.6699 0.732178C67.2646 0.732056 68.5566 2.04236 68.5566 3.65991Z" fill="#FFFFFF" fill-opacity="1.000000" fill-rule="nonzero"/>
	<path id="Vector" d="M0.72168 39.2415L0.72168 45.7815C0.72168 47.3986 2.01416 48.7092 3.6084 48.7092L65.6699 48.7092C67.2642 48.7092 68.5566 47.3984 68.5566 45.7815L68.5566 39.2415L0.72168 39.2415Z" fill="#38BFF2" fill-opacity="1.000000" fill-rule="nonzero"/>
	<path id="Vector" d="M27.0688 48.7094L42.209 48.7094L42.209 55.5991L27.0688 55.5991L27.0688 48.7094Z" fill="#D7E9FF" fill-opacity="1.000000" fill-rule="nonzero"/>
	<path id="Vector" d="M48.2778 56.4514L50.0825 58.2723C50.5391 58.7328 50.2173 59.5231 49.5732 59.5231L19.7046 59.5231C19.0605 59.5231 18.7393 58.7328 19.1953 58.2723L21 56.4514C21.541 55.9056 22.2729 55.5991 23.0356 55.5991L46.2422 55.5991C47.0054 55.5991 47.7373 55.9056 48.2778 56.4514Z" fill="#38BFF2" fill-opacity="1.000000" fill-rule="nonzero"/>
	<path id="Vector" d="M36.0752 43.9753C36.0752 44.7798 35.4321 45.4319 34.6392 45.4319C33.8462 45.4319 33.2031 44.7798 33.2031 43.9753C33.2031 43.1708 33.8462 42.5187 34.6392 42.5187C35.4321 42.5187 36.0752 43.1708 36.0752 43.9753Z" fill="#D7E9FF" fill-opacity="1.000000" fill-rule="evenodd"/>
	<path id="Vector" d="M69.2783 3.65979C69.2783 1.64185 67.6597 0 65.6699 0L3.6084 0C1.61865 0 0 1.64185 0 3.65979L0 45.7819C0 47.7998 1.61865 49.4417 3.6084 49.4417L26.3472 49.4417L26.3472 54.8671L23.0356 54.8671C22.0752 54.8671 21.1719 55.2458 20.4917 55.9329L18.687 57.7535C17.7764 58.6725 18.4189 60.2552 19.7046 60.2552L49.5737 60.2552C50.8589 60.2552 51.5029 58.6732 50.5913 57.7535L48.7866 55.9329C48.1064 55.2452 47.2031 54.8671 46.2427 54.8671L42.9312 54.8671L42.9312 49.4417L65.6699 49.4417C67.6597 49.4417 69.2783 47.7998 69.2783 45.7819C69.2783 30.8195 69.2783 19.6991 69.2783 3.65979ZM1.44336 3.65979C1.44336 2.44897 2.41455 1.46399 3.6084 1.46399L65.6699 1.46399C66.8638 1.46399 67.835 2.44897 67.835 3.65979L67.835 38.5087L1.44336 38.5087L1.44336 3.65979ZM47.7686 56.9698C47.769 56.9706 47.769 56.9706 47.769 56.9706L49.5737 58.7911L19.7046 58.7911L21.5098 56.9698C21.918 56.5581 22.46 56.3309 23.0356 56.3309L46.2427 56.3309C46.8184 56.3309 47.3604 56.5581 47.7686 56.9698ZM41.4878 54.8669L27.7905 54.8669L27.7905 49.4415L41.4878 49.4415L41.4878 54.8669ZM67.835 45.7819C67.835 46.9927 66.8638 47.9777 65.6699 47.9777C44.9712 47.9777 24.2578 47.9777 3.6084 47.9777C2.41455 47.9777 1.44336 46.9927 1.44336 45.7819L1.44336 39.9733L67.835 39.9733L67.835 45.7819Z" fill="#1A2E35" fill-opacity="1.000000" fill-rule="nonzero"/>
	<path id="Vector" d="M34.6392 46.1642C35.8286 46.1642 36.7969 45.1821 36.7969 43.9756C36.7969 42.7689 35.8286 41.7867 34.6392 41.7867C33.4492 41.7867 32.481 42.7688 32.481 43.9756C32.481 45.1821 33.4492 46.1642 34.6392 46.1642ZM34.6392 43.2507C35.0327 43.2507 35.3535 43.5759 35.3535 43.9756C35.3535 44.375 35.0327 44.7003 34.6392 44.7003C34.2451 44.7003 33.9243 44.3751 33.9243 43.9756C33.9243 43.5759 34.2451 43.2507 34.6392 43.2507Z" fill="#1A2E35" fill-opacity="1.000000" fill-rule="nonzero"/>
	<path id="Vector" d="M55.7056 8.62756L7.36084 8.62756C6.96191 8.62756 6.63916 8.95496 6.63916 9.3595C6.63916 9.76404 6.96191 10.0914 7.36084 10.0914L55.7056 10.0914C56.1045 10.0914 56.4272 9.76404 56.4272 9.3595C56.4272 8.95496 56.1045 8.62756 55.7056 8.62756Z" fill="#1A2E35" fill-opacity="1.000000" fill-rule="nonzero"/>
	<path id="Vector" d="M55.7056 13.6276L7.36084 13.6276C6.96191 13.6276 6.63916 13.955 6.63916 14.3595C6.63916 14.764 6.96191 15.0914 7.36084 15.0914L55.7056 15.0914C56.1045 15.0914 56.4272 14.764 56.4272 14.3595C56.4272 13.955 56.1045 13.6276 55.7056 13.6276Z" fill="#1A2E35" fill-opacity="1.000000" fill-rule="nonzero"/>
	<path id="Vector" d="M45.7056 18.6276L7.36084 18.6276C6.96191 18.6276 6.63916 18.955 6.63916 19.3595C6.63916 19.764 6.96191 20.0914 7.36084 20.0914L45.7056 20.0914C46.1045 20.0914 46.4272 19.764 46.4272 19.3595C46.4272 18.955 46.1045 18.6276 45.7056 18.6276Z" fill="#1A2E35" fill-opacity="1.000000" fill-rule="nonzero"/>
	<path id="Vector" d="M35.7056 23.6276L7.36084 23.6276C6.96191 23.6276 6.63916 23.955 6.63916 24.3595C6.63916 24.764 6.96191 25.0914 7.36084 25.0914L35.7056 25.0914C36.1045 25.0914 36.4272 24.764 36.4272 24.3595C36.4272 23.955 36.1045 23.6276 35.7056 23.6276Z" fill="#1A2E35" fill-opacity="1.000000" fill-rule="nonzero"/>
	<path id="Vector" d="M25.7056 28.6276L7.36084 28.6276C6.96191 28.6276 6.63916 28.955 6.63916 29.3595C6.63916 29.764 6.96191 30.0914 7.36084 30.0914L25.7056 30.0914C26.1045 30.0914 26.4272 29.764 26.4272 29.3595C26.4272 28.955 26.1045 28.6276 25.7056 28.6276Z" fill="#1A2E35" fill-opacity="1.000000" fill-rule="nonzero"/>
</svg>
