<svg width="59.000000" height="59.000000" viewBox="0 0 59 59" fill="none" xmlns="http://www.w3.org/2000/svg" xmlns:xlink="http://www.w3.org/1999/xlink">
	<desc>
			Created with Pixso.
	</desc>
	<defs>
		<clipPath id="clip41_5">
			<rect id="svg-gobbler 3" width="59.000000" height="59.000000" fill="white" fill-opacity="0"/>
		</clipPath>
	</defs>
	<rect id="svg-gobbler 3" width="59.000000" height="59.000000" fill="#FFFFFF" fill-opacity="0"/>
	<g clip-path="url(#clip41_5)">
		<circle id="Ellipse 803" cx="29.500000" cy="29.500000" r="8.500000" fill="#38BFF2" fill-opacity="1.000000"/>
		<circle id="Ellipse 804" cx="41.500000" cy="5.500000" r="4.500000" fill="#38BFF2" fill-opacity="1.000000"/>
		<circle id="Ellipse 805" cx="5.500000" cy="17.500000" r="4.500000" fill="#38BFF2" fill-opacity="1.000000"/>
		<circle id="Ellipse 806" cx="17.500000" cy="53.500000" r="4.500000" fill="#38BFF2" fill-opacity="1.000000"/>
		<circle id="Ellipse 807" cx="53.500000" cy="41.500000" r="4.500000" fill="#38BFF2" fill-opacity="1.000000"/>
		<path id="Vector" d="M20.73 27.1506C19.4351 31.9858 22.3149 36.9738 27.1504 38.27C27.9346 38.4797 28.7217 38.5798 29.4976 38.5798C33.5059 38.5798 37.1841 35.9014 38.27 31.8495C38.8975 29.5073 38.5752 27.0609 37.3623 24.9607C36.1499 22.8606 34.1919 21.3583 31.8496 20.7307C29.5063 20.1025 27.0601 20.4254 24.9604 21.6376C22.8604 22.8501 21.3584 24.8081 20.73 27.1506ZM29.5015 22.0154C30.1406 22.0154 30.791 22.0979 31.4365 22.2712L31.4375 22.2712C33.3682 22.7883 34.9819 24.0269 35.9814 25.7579C36.981 27.4891 37.2471 29.5062 36.7295 31.4366C35.6611 35.4227 31.5488 37.7996 27.5635 36.7292C23.5767 35.661 21.2026 31.5493 22.271 27.5634C23.1655 24.223 26.1973 22.0154 29.5015 22.0154ZM13.7275 25.9517C13.7476 25.9532 13.7666 25.9537 13.7861 25.9537C14.2002 25.9537 14.5503 25.6329 14.5801 25.2135C15.5815 11.2302 26.0635 5.2511 36.2754 5.40442C36.3115 6.22266 36.5415 7.02649 36.9629 7.7561C37.6533 8.95215 38.7681 9.8075 40.1021 10.1652C40.5479 10.2845 40.999 10.3433 41.4482 10.3433C42.3442 10.3433 43.2285 10.108 44.0254 9.64819C44.9478 9.1156 45.665 8.32861 46.1099 7.38501C49.8335 8.82361 53.3096 10.9689 56.4463 13.7883C56.5991 13.9253 56.7896 13.9928 56.979 13.9928C57.1973 13.9928 57.415 13.9036 57.5723 13.7286C57.8667 13.4011 57.8403 12.8971 57.5127 12.6028C54.1968 9.62183 50.5127 7.35864 46.5605 5.8501C46.8984 3.31592 45.312 0.855713 42.7778 0.176514C40.0293 -0.559082 37.1958 1.07214 36.4512 3.81592C23.519 3.52795 13.9141 12.1898 12.9893 25.0992C12.958 25.5385 13.2886 25.9199 13.7275 25.9517ZM37.9863 4.245C38.4136 2.64941 39.8623 1.5946 41.4409 1.5946C41.7466 1.5946 42.0571 1.63403 42.3657 1.71716C44.27 2.22742 45.4043 4.19153 44.894 6.09668C44.3838 8.0011 42.4175 9.13586 40.5142 8.62451C38.6104 8.11426 37.4761 6.15015 37.9863 4.245ZM3.81592 22.5487C3.52734 35.479 12.1895 45.0853 25.0991 46.0105C25.1187 46.012 25.1382 46.0126 25.1572 46.0126C25.5718 46.0126 25.9214 45.6918 25.9517 45.2723C25.9834 44.8331 25.6523 44.4515 25.2134 44.4199C11.2271 43.4178 5.24365 32.9287 5.4043 22.7175C6.22217 22.6813 7.02686 22.4583 7.75635 22.0372C8.95215 21.3469 9.80762 20.2318 10.165 18.8978C10.5225 17.5643 10.3394 16.1705 9.64844 14.9745C9.11572 14.052 8.32861 13.3351 7.38525 12.8899C8.82373 9.16626 10.9692 5.69006 13.7886 2.55334C14.0825 2.22595 14.0562 1.72192 13.7285 1.42761C13.3999 1.1322 12.896 1.16028 12.603 1.4873C9.62207 4.80347 7.35889 8.48743 5.8501 12.4392C3.31592 12.1021 0.855469 13.6877 0.176758 16.2219C-0.55957 18.9698 1.07275 21.8033 3.81592 22.5487ZM1.71729 16.634C2.14453 15.0383 3.59326 13.9836 5.17188 13.9836C5.47754 13.9836 5.78809 14.0231 6.09668 14.1061C8.00049 14.6163 9.13477 16.5806 8.62451 18.4856C8.11426 20.3901 6.14746 21.5243 4.24512 21.0135C2.34131 20.5033 1.20703 18.5391 1.71729 16.634ZM45.2725 33.0485C44.8257 33.0111 44.4517 33.3479 44.4199 33.7866C43.4185 47.77 32.9399 53.7561 22.7251 53.5962C22.689 52.7775 22.459 51.9738 22.0371 51.2439C21.3467 50.0479 20.2319 49.1925 18.8979 48.8347C17.564 48.4777 16.1714 48.6614 14.9746 49.3518C14.0522 49.8844 13.335 50.6714 12.8901 51.6149C9.1665 50.1763 5.69043 48.0311 2.55371 45.2117C2.2251 44.9164 1.72119 44.9443 1.42773 45.2714C1.1333 45.5989 1.16016 46.1029 1.4873 46.3972C4.80371 49.3781 8.4873 51.6414 12.4395 53.1498C12.1021 55.6841 13.688 58.1442 16.2222 58.8235C16.6685 58.9429 17.1172 59 17.5586 59C19.8364 59 21.9258 57.4813 22.5493 55.1831C22.7578 55.1877 22.9683 55.1978 23.1753 55.1978C35.7886 55.1978 45.1006 46.6018 46.0107 33.9009C46.042 33.4617 45.7114 33.0802 45.2725 33.0485ZM21.0137 54.755C20.5034 56.6595 18.5361 57.7942 16.6343 57.283C14.73 56.7727 13.5957 54.8085 14.106 52.9034C14.5332 51.3079 15.9819 50.2531 17.5605 50.2531C17.8662 50.2531 18.1768 50.2925 18.4858 50.3756C20.3896 50.8857 21.5239 52.85 21.0137 54.755ZM55.1841 36.4513C55.4727 23.5211 46.8105 13.9148 33.9009 12.9895C33.4629 12.9563 33.0801 13.2889 33.0483 13.7277C33.0166 14.1669 33.3477 14.5483 33.7866 14.5801C47.7695 15.582 53.7539 26.0662 53.5957 36.2751C52.7773 36.3112 51.9736 36.5415 51.2437 36.963C50.0479 37.6533 49.1924 38.7683 48.8345 40.1024C48.4775 41.4359 48.6606 42.8297 49.3516 44.0256C49.8843 44.9482 50.6714 45.6652 51.6147 46.1102C50.1763 49.834 48.0308 53.3102 45.2114 56.4468C44.9175 56.7743 44.9438 57.2783 45.2715 57.5726C45.4238 57.7097 45.6143 57.7772 45.8037 57.7772C46.0225 57.7772 46.2397 57.6879 46.3975 57.5129C49.377 54.1979 51.6396 50.5154 53.1484 46.5651C53.376 46.5956 53.6025 46.6112 53.8281 46.6112C56.1108 46.6112 58.2056 45.0856 58.8237 42.7783C59.5596 40.0303 57.9272 37.1968 55.1841 36.4513ZM57.2827 42.3661C56.7725 44.2705 54.8057 45.4053 52.9033 44.894C50.999 44.3837 49.8652 42.4196 50.3755 40.5145C50.8027 38.9188 52.2515 37.8641 53.8301 37.8641C54.1357 37.8641 54.4463 37.9036 54.7549 37.9866C56.6587 38.4967 57.793 40.4611 57.2827 42.3661Z" fill="#1A2E35" fill-opacity="1.000000" fill-rule="nonzero"/>
	</g>
</svg>
