<svg width="59.000000" height="59.000000" viewBox="0 0 59 59" fill="none" xmlns="http://www.w3.org/2000/svg" xmlns:xlink="http://www.w3.org/1999/xlink">
	<desc>
			Created with Pixso.
	</desc>
	<defs>
		<clipPath id="clip25_108">
			<rect id="svg-gobbler (5) 1" width="59.000000" height="59.000000" fill="white" fill-opacity="0"/>
		</clipPath>
	</defs>
	<rect id="svg-gobbler (5) 1" width="59.000000" height="59.000000" fill="#FFFFFF" fill-opacity="0"/>
	<g clip-path="url(#clip25_108)">
		<path id="Vector" d="M49.9155 9.078C61.1943 20.3567 61.1943 38.6433 49.9155 49.922C38.6367 61.2008 20.3501 61.2008 9.07129 49.922C-2.20752 38.6432 -2.20752 20.3568 9.07129 9.078C20.3501 -2.20081 38.6367 -2.20081 49.9155 9.078Z" fill="#38BFF2" fill-opacity="1.000000" fill-rule="evenodd"/>
		<path id="Vector" d="M52.2393 29.5C52.2393 42.0587 42.0586 52.2396 29.5 52.2396C16.9409 52.2396 6.76025 42.0587 6.76025 29.5C6.76025 16.9413 16.9409 6.7605 29.5 6.7605C42.0586 6.7605 52.2393 16.9413 52.2393 29.5Z" fill="#FFFFFF" fill-opacity="1.000000" fill-rule="evenodd"/>
		<path id="Vector" d="M29.5 0C13.2334 0 0 13.2336 0 29.5C0 45.7664 13.2334 59 29.5 59C45.7666 59 59 45.7664 59 29.5C59 13.2336 45.7666 0 29.5 0ZM29.5 57.7708C13.9116 57.7708 1.229 45.0885 1.229 29.5C1.229 13.9115 13.9116 1.22925 29.5 1.22925C45.0884 1.22925 57.771 13.9115 57.771 29.5C57.771 45.0885 45.0884 57.7708 29.5 57.7708Z" fill="#1A2E35" fill-opacity="1.000000" fill-rule="nonzero"/>
		<path id="Vector" d="M29.5 6.14575C16.6226 6.14575 6.146 16.6226 6.146 29.5C6.146 42.3774 16.6226 52.8541 29.5 52.8541C42.3774 52.8541 52.8545 42.3774 52.8545 29.5C52.8545 16.6226 42.3774 6.14575 29.5 6.14575ZM29.5 51.625C17.3003 51.625 7.375 41.6998 7.375 29.5C7.375 17.3 17.3003 7.375 29.5 7.375C41.7002 7.375 51.625 17.3 51.625 29.5C51.625 41.6998 41.7002 51.625 29.5 51.625Z" fill="#1A2E35" fill-opacity="1.000000" fill-rule="nonzero"/>
		<path id="Vector" d="M31.9604 16.2147L23.7871 16.2147C23.7764 16.2141 23.7681 16.2087 23.7573 16.2087C23.418 16.2087 23.1426 16.4839 23.1426 16.8232L23.1426 16.8292L23.1426 28.5813L20.856 28.5813C20.5166 28.5813 20.2412 28.8566 20.2412 29.1959C20.2412 29.5353 20.5166 29.8104 20.856 29.8104L23.1426 29.8104L23.1426 32.412L20.856 32.412C20.5166 32.412 20.2412 32.6871 20.2412 33.0265C20.2412 33.3658 20.5166 33.641 20.856 33.641L23.1426 33.641L23.1426 42.1765C23.1426 42.5159 23.418 42.791 23.7573 42.791C24.0967 42.791 24.3716 42.5159 24.3716 42.1765L24.3716 33.641L35.4624 33.641C35.8018 33.641 36.0767 33.3658 36.0767 33.0265C36.0767 32.6871 35.8018 32.412 35.4624 32.412L24.3721 32.412L24.3721 29.8104L25.4077 29.8104L31.5303 29.8104C35.2993 29.8104 38.4653 27.0646 38.7373 23.5593C38.7373 23.559 38.7373 23.559 38.7373 23.559C39.0537 19.4844 35.8369 16.2147 31.9604 16.2147ZM37.5122 23.4642L37.5122 23.4639C37.2896 26.3337 34.6616 28.5813 31.5303 28.5813L25.4077 28.5813L24.3721 28.5813L24.3721 17.4438L31.9604 17.4438C35.1348 17.444 37.7715 20.1178 37.5122 23.4642Z" fill="#1A2E35" fill-opacity="1.000000" fill-rule="nonzero"/>
	</g>
</svg>
