<svg width="71.344238" height="71.344482" viewBox="0 0 71.3442 71.3445" fill="none" xmlns="http://www.w3.org/2000/svg" xmlns:xlink="http://www.w3.org/1999/xlink">
	<desc>
			Created with Pixso.
	</desc>
	<defs>
		<clipPath id="clip25_60">
			<rect id="svg-gobbler (3) 1" width="71.344437" height="71.344437" fill="white" fill-opacity="0"/>
		</clipPath>
	</defs>
	<rect id="svg-gobbler (3) 1" width="71.344437" height="71.344437" fill="#FFFFFF" fill-opacity="0"/>
	<g clip-path="url(#clip25_60)">
		<path id="Vector" d="M63.5552 10.7076L63.5552 62.8193C63.5552 64.1874 62.4478 65.2949 61.0796 65.2949L10.9746 65.2949C9.60645 65.2949 8.49902 64.1874 8.49902 62.8193L8.49902 59.575C7.16357 59.575 5.95166 59.0277 5.0791 58.1548C4.19287 57.2817 3.65869 56.0635 3.65869 54.728L8.49902 54.728L8.49902 10.7076C8.49902 9.3396 9.60645 8.23206 10.9746 8.23206L61.0796 8.23206C62.4482 8.23206 63.5552 9.3396 63.5552 10.7076Z" fill="#FFFFFF" fill-opacity="1.000000" fill-rule="nonzero"/>
		<path id="Vector 7" d="M4.57324 54.423C4.87793 55.9475 6.12842 58.9963 8.68945 58.9963L58.8511 58.9963C59.0762 59.0206 59.2798 59.0181 59.4536 58.9963L58.8511 58.9963C57.4941 58.8503 55.3643 57.7312 54.4229 53.9657L4.57324 54.423Z" fill="#38BFF2" fill-opacity="1.000000" fill-rule="evenodd"/>
		<path id="Vector" d="M19.1821 27.4402C17.0225 27.4402 15.2661 29.193 15.2661 31.3472C15.2661 33.502 17.0225 35.2548 19.1821 35.2548C21.3364 35.2548 23.0889 33.502 23.0889 31.3472C23.0889 29.193 21.3364 27.4402 19.1821 27.4402Z" fill="#38BFF2" fill-opacity="1.000000" fill-rule="nonzero"/>
		<path id="Vector" d="M19.1821 27.4402C17.0225 27.4402 15.2661 29.193 15.2661 31.3472C15.2661 33.502 17.0225 35.2548 19.1821 35.2548C21.3364 35.2548 23.0889 33.502 23.0889 31.3472C23.0889 29.193 21.3364 27.4402 19.1821 27.4402ZM19.1821 33.9518C17.7412 33.9518 16.5693 32.7831 16.5693 31.3472C16.5693 29.9111 17.7412 28.743 19.1821 28.743C20.6182 28.743 21.7861 29.9111 21.7861 31.3472C21.7861 32.7831 20.6182 33.9518 19.1821 33.9518Z" fill="#1A2E35" fill-opacity="1.000000" fill-rule="nonzero"/>
		<path id="Vector" d="M30.7529 27.4402C28.5933 27.4402 26.8369 29.193 26.8369 31.3472C26.8369 33.502 28.5933 35.2548 30.7529 35.2548C32.9072 35.2548 34.6602 33.502 34.6602 31.3472C34.6602 29.193 32.9072 27.4402 30.7529 27.4402Z" fill="#38BFF2" fill-opacity="1.000000" fill-rule="nonzero"/>
		<path id="Vector" d="M30.7529 27.4402C28.5933 27.4402 26.8369 29.193 26.8369 31.3472C26.8369 33.502 28.5933 35.2548 30.7529 35.2548C32.9072 35.2548 34.6602 33.502 34.6602 31.3472C34.6602 29.193 32.9072 27.4402 30.7529 27.4402ZM30.7529 33.9518C29.312 33.9518 28.1401 32.7831 28.1401 31.3472C28.1401 29.9111 29.312 28.743 30.7529 28.743C32.189 28.743 33.3569 29.9111 33.3569 31.3472C33.3569 32.7831 32.189 33.9518 30.7529 33.9518Z" fill="#1A2E35" fill-opacity="1.000000" fill-rule="nonzero"/>
		<path id="Vector" d="M42.3247 27.5184C40.165 27.5184 38.4087 29.2712 38.4087 31.4254C38.4087 33.5802 40.165 35.333 42.3247 35.333C44.479 35.333 46.2319 33.5802 46.2319 31.4254C46.2319 29.2712 44.479 27.5184 42.3247 27.5184Z" fill="#38BFF2" fill-opacity="1.000000" fill-rule="nonzero"/>
		<path id="Vector" d="M42.3247 27.4402C40.165 27.4402 38.4087 29.193 38.4087 31.3472C38.4087 33.502 40.165 35.2548 42.3247 35.2548C44.479 35.2548 46.2319 33.502 46.2319 31.3472C46.2319 29.193 44.479 27.4402 42.3247 27.4402ZM42.3247 33.9518C40.8838 33.9518 39.7119 32.7831 39.7119 31.3472C39.7119 29.9111 40.8838 28.743 42.3247 28.743C43.7603 28.743 44.9287 29.9111 44.9287 31.3472C44.9287 32.7831 43.7603 33.9518 42.3247 33.9518Z" fill="#1A2E35" fill-opacity="1.000000" fill-rule="nonzero"/>
		<path id="Vector" d="M53.896 35.2548C56.0503 35.2548 57.8032 33.502 57.8032 31.3472C57.8032 29.1929 56.0503 27.4402 53.896 27.4402C51.7363 27.4402 49.98 29.193 49.98 31.3472C49.98 33.502 51.7363 35.2548 53.896 35.2548Z" fill="#38BFF2" fill-opacity="1.000000" fill-rule="nonzero"/>
		<path id="Vector" d="M53.896 35.2548C56.0503 35.2548 57.8032 33.502 57.8032 31.3472C57.8032 29.1929 56.0503 27.4402 53.896 27.4402C51.7363 27.4402 49.98 29.193 49.98 31.3472C49.98 33.502 51.7363 35.2548 53.896 35.2548ZM53.896 28.7432C55.332 28.7432 56.5 29.9114 56.5 31.3473C56.5 32.7832 55.332 33.9519 53.896 33.9519C52.4551 33.9519 51.2832 32.7832 51.2832 31.3473C51.2832 29.9111 52.4551 28.7432 53.896 28.7432Z" fill="#1A2E35" fill-opacity="1.000000" fill-rule="nonzero"/>
		<path id="Vector" d="M19.1821 38.4163C17.0225 38.4163 15.2661 40.1691 15.2661 42.3239C15.2661 44.4781 17.0225 46.2308 19.1821 46.2308C21.3364 46.2308 23.0889 44.478 23.0889 42.3239C23.0889 40.1691 21.3364 38.4163 19.1821 38.4163Z" fill="#38BFF2" fill-opacity="1.000000" fill-rule="nonzero"/>
		<path id="Vector" d="M19.1821 38.4163C17.0225 38.4163 15.2661 40.1691 15.2661 42.3239C15.2661 44.4781 17.0225 46.2308 19.1821 46.2308C21.3364 46.2308 23.0889 44.478 23.0889 42.3239C23.0889 40.1691 21.3364 38.4163 19.1821 38.4163ZM19.1821 44.9279C17.7412 44.9279 16.5693 43.7598 16.5693 42.3237C16.5693 40.8878 17.7412 39.7191 19.1821 39.7191C20.6182 39.7191 21.7861 40.8878 21.7861 42.3237C21.7861 43.7598 20.6182 44.9279 19.1821 44.9279Z" fill="#1A2E35" fill-opacity="1.000000" fill-rule="nonzero"/>
		<path id="Vector" d="M30.7529 38.4163C28.5933 38.4163 26.8369 40.1691 26.8369 42.3239C26.8369 44.4781 28.5933 46.2308 30.7529 46.2308C32.9072 46.2308 34.6602 44.478 34.6602 42.3239C34.6602 40.1691 32.9072 38.4163 30.7529 38.4163Z" fill="#38BFF2" fill-opacity="1.000000" fill-rule="nonzero"/>
		<path id="Vector" d="M30.7529 38.4163C28.5933 38.4163 26.8369 40.1691 26.8369 42.3239C26.8369 44.4781 28.5933 46.2308 30.7529 46.2308C32.9072 46.2308 34.6602 44.478 34.6602 42.3239C34.6602 40.1691 32.9072 38.4163 30.7529 38.4163ZM30.7529 44.9279C29.312 44.9279 28.1401 43.7598 28.1401 42.3237C28.1401 40.8878 29.312 39.7191 30.7529 39.7191C32.189 39.7191 33.3569 40.8878 33.3569 42.3237C33.3569 43.7598 32.189 44.9279 30.7529 44.9279Z" fill="#1A2E35" fill-opacity="1.000000" fill-rule="nonzero"/>
		<path id="Vector" d="M42.3247 38.4163C40.165 38.4163 38.4087 40.1691 38.4087 42.3239C38.4087 44.4781 40.165 46.2308 42.3247 46.2308C44.479 46.2308 46.2319 44.478 46.2319 42.3239C46.2319 40.1691 44.479 38.4163 42.3247 38.4163ZM42.3247 44.9279C40.8838 44.9279 39.7119 43.7598 39.7119 42.3237C39.7119 40.8878 40.8838 39.7191 42.3247 39.7191C43.7603 39.7191 44.9287 40.8878 44.9287 42.3237C44.9287 43.7598 43.7603 44.9279 42.3247 44.9279Z" fill="#1A2E35" fill-opacity="1.000000" fill-rule="nonzero"/>
		<path id="Vector" d="M57.8032 42.3239C57.8032 40.1691 56.0503 38.4163 53.896 38.4163C51.7363 38.4163 49.98 40.1691 49.98 42.3239C49.98 44.4781 51.7363 46.2308 53.896 46.2308C56.0503 46.2308 57.8032 44.478 57.8032 42.3239ZM53.896 44.9279C52.4551 44.9279 51.2832 43.7598 51.2832 42.3237C51.2832 40.8878 52.4551 39.7191 53.896 39.7191C55.332 39.7191 56.5 40.8878 56.5 42.3237C56.5 43.7598 55.332 44.9279 53.896 44.9279Z" fill="#1A2E35" fill-opacity="1.000000" fill-rule="nonzero"/>
		<path id="Vector" d="M61.5859 7.01794L56.3574 7.01794L56.3574 3.49341C56.3574 3.1333 56.0659 2.84192 55.7061 2.84192C55.3462 2.84192 55.0547 3.1333 55.0547 3.49341L55.0547 7.01794L16.4585 7.01794L16.4585 3.49341C16.4585 3.1333 16.167 2.84192 15.8071 2.84192C15.4473 2.84192 15.1558 3.1333 15.1558 3.49341L15.1558 7.01794L11.4829 7.01794C9.75879 7.01794 8.35596 8.42078 8.35596 10.145C8.35596 15.8752 8.354 53.2717 8.354 53.516L4.16357 53.516C3.80371 53.516 3.51221 53.8074 3.51221 54.1674C3.51221 57.0601 5.69629 59.306 8.354 59.6199L8.354 62.2568C8.354 63.981 9.75684 65.3838 11.481 65.3838L61.5864 65.3838C63.3105 65.3838 64.7134 63.9811 64.7134 62.2568C64.7134 50.7671 64.7134 21.0516 64.7134 10.145C64.7134 8.42078 63.3105 7.01794 61.5859 7.01794ZM11.4824 8.32092L15.1558 8.32092L15.1558 13.4907C15.1558 13.8508 15.4473 14.1422 15.8071 14.1422C16.167 14.1422 16.4585 13.8508 16.4585 13.4907L16.4585 8.32092L55.0547 8.32092L55.0547 13.4907C55.0547 13.8508 55.3462 14.1422 55.7061 14.1422C56.0659 14.1422 56.3574 13.8508 56.3574 13.4907L56.3574 8.32092L61.5859 8.32092C62.5918 8.32092 63.4102 9.13916 63.4102 10.145L63.4102 18.66L9.65869 18.66L9.65869 10.1448C9.65869 9.13904 10.4771 8.32092 11.4824 8.32092ZM9.65723 19.9635L63.4102 19.9635L63.4102 54.1654C63.4102 56.4779 61.5322 58.3591 59.2236 58.3605C59.2217 58.3605 59.2202 58.3594 59.2178 58.3594C56.9028 58.3594 55.0259 56.4832 55.0259 54.1672C55.0259 53.8073 54.7344 53.5159 54.3745 53.5159L9.65723 53.5159L9.65723 19.9635ZM4.86475 54.8188L53.7612 54.8188C53.9243 56.2063 54.605 57.4576 55.666 58.3594L9.00732 58.3594C6.89795 58.3594 5.16992 56.8053 4.86475 54.8188ZM63.4102 62.2568C63.4102 63.2626 62.5918 64.0808 61.5859 64.0808L11.481 64.0808C10.4751 64.0808 9.65723 63.2627 9.65723 62.2568L9.65723 59.6636L59.2212 59.6636C60.8994 59.6636 62.4023 58.9042 63.4102 57.7128L63.4102 62.2568L63.4102 62.2568Z" fill="#1A2E35" fill-opacity="1.000000" fill-rule="nonzero"/>
	</g>
</svg>
