<svg width="63.230957" height="57.000000" viewBox="0 0 63.231 57" fill="none" xmlns="http://www.w3.org/2000/svg" xmlns:xlink="http://www.w3.org/1999/xlink">
	<desc>
			Created with Pixso.
	</desc>
	<defs/>
	<path id="Rectangle 315" d="M0 6C0 2.68628 2.68652 0 6 0L43.3271 0C46.6406 0 49.3271 2.68628 49.3271 6L49.3271 34.5577C49.3271 37.8715 46.6406 40.5577 43.3271 40.5577L19.4189 40.5577C17.8232 40.5577 16.2505 40.9396 14.8325 41.6715L2.91748 47.8213C1.58594 48.5083 0 47.542 0 46.0439L0 40.5577L0 6Z" fill="#FFFFFF" fill-opacity="1.000000" fill-rule="nonzero"/>
	<path id="Rectangle 315" d="M0 6C0 2.68628 2.68652 0 6 0L43.3271 0C46.6406 0 49.3271 2.68628 49.3271 6L49.3271 34.5577C49.3271 37.8715 46.6406 40.5577 43.3271 40.5577L19.4189 40.5577C17.8232 40.5577 16.2505 40.9396 14.8325 41.6715L2.91748 47.8213C1.58594 48.5083 0 47.542 0 46.0439L0 6ZM6 1.5L43.3271 1.5Q44.2588 1.5 45.0542 1.82947Q45.8501 2.15906 46.5088 2.81799Q47.168 3.47705 47.4976 4.27246Q47.8271 5.06799 47.8271 6L47.8271 34.5577Q47.8271 35.4896 47.4976 36.2852Q47.168 37.0807 46.5088 37.7396Q45.8501 38.3987 45.0542 38.7281Q44.2588 39.0577 43.3271 39.0577L19.4189 39.0577Q18.0225 39.0577 16.7036 39.3779Q15.3853 39.6981 14.1445 40.3385L2.22949 46.4883Q2.10449 46.5527 1.98193 46.5483Q1.85986 46.5441 1.73975 46.4709Q1.62012 46.3979 1.56006 46.2911Q1.5 46.1844 1.5 46.0439L1.5 40.5577L1.5 6Q1.5 5.06799 1.82959 4.27258Q2.15918 3.47705 2.81787 2.81799Q3.47705 2.15906 4.27246 1.82947Q5.06787 1.5 6 1.5Z" fill="#263238" fill-opacity="1.000000" fill-rule="evenodd"/>
	<path id="Rectangle 318" d="M21.1733 43.2981Q21.1733 45.8134 22.9517 47.5919Q24.7305 49.3705 27.2456 49.3705L45.6812 49.3705Q48.2314 49.3705 50.4209 50.6771L59.0718 55.8391Q60.4468 56.6594 61.8389 55.869Q63.231 55.0785 63.231 53.4775L63.231 48.6205L63.231 19.1538Q63.231 16.3579 61.2539 14.3809Q59.2769 12.4038 56.481 12.4038L51.7266 12.4038L51.7266 13.9038L56.481 13.9038Q58.6558 13.9038 60.1934 15.4415Q61.731 16.9792 61.731 19.1538L61.731 48.6205L61.731 53.4775Q61.731 54.2052 61.0981 54.5646Q60.4653 54.9238 59.8403 54.551L51.1895 49.389Q48.6445 47.8705 45.6812 47.8705L27.2456 47.8705Q25.3516 47.8705 24.0127 46.5312Q22.6733 45.192 22.6733 43.2981L21.1733 43.2981Z" fill="#263238" fill-opacity="1.000000" fill-rule="evenodd"/>
	<rect id="Rectangle 316" x="10.211426" y="12.403809" rx="1.846154" width="30.000000" height="3.692308" fill="#38BFF2" fill-opacity="1.000000"/>
	<rect id="Rectangle 316" x="10.211426" y="12.403809" rx="1.846154" width="30.000000" height="3.692308" stroke="#263238" stroke-opacity="1.000000" stroke-width="1.500000"/>
	<rect id="Rectangle 317" x="10.211426" y="20.076904" rx="1.846154" width="23.423077" height="3.692308" fill="#38BFF2" fill-opacity="1.000000"/>
	<rect id="Rectangle 317" x="10.211426" y="20.076904" rx="1.846154" width="23.423077" height="3.692308" stroke="#263238" stroke-opacity="1.000000" stroke-width="1.500000"/>
</svg>
