<svg width="60.000000" height="60.000000" viewBox="0 0 60 60" fill="none" xmlns="http://www.w3.org/2000/svg" xmlns:xlink="http://www.w3.org/1999/xlink">
	<desc>
			Created with Pixso.
	</desc>
	<defs>
		<clipPath id="clip25_121">
			<rect id="svg-gobbler (6) 1" width="60.000000" height="60.000000" fill="white" fill-opacity="0"/>
		</clipPath>
	</defs>
	<rect id="svg-gobbler (6) 1" width="60.000000" height="60.000000" fill="#FFFFFF" fill-opacity="0"/>
	<g clip-path="url(#clip25_121)">
		<path id="Vector" d="M39.2661 4.02051L39.2661 55.9792C39.2661 57.6874 37.8813 59.072 36.1733 59.072L8.24756 59.072C6.53955 59.072 5.15479 57.6874 5.15479 55.9792L5.15479 4.02051C5.15479 2.31238 6.53955 0.927734 8.24756 0.927734L36.1733 0.927734C37.8813 0.927856 39.2661 2.3125 39.2661 4.02051Z" fill="#FFFFFF" fill-opacity="1.000000" fill-rule="nonzero"/>
		<path id="Vector" d="M30.8145 0.927856L30.8145 3.39709C30.8145 4.76367 29.707 5.87134 28.3403 5.87134L16.0806 5.87134C14.7139 5.87134 13.6064 4.76355 13.6064 3.39709L13.6064 0.927856L30.8145 0.927856Z" fill="#38BFF2" fill-opacity="1.000000" fill-rule="nonzero"/>
		<path id="Vector" d="M54.8452 20.765L54.8452 40.4723C54.8452 41.8387 53.7373 42.9464 52.3711 42.9464L22.21 42.9464L22.21 18.2908L52.3706 18.2908C53.7373 18.2908 54.8452 19.3986 54.8452 20.765Z" fill="#38BFF2" fill-opacity="1.000000" fill-rule="nonzero"/>
		<path id="Vector" d="M22.21 23.3475L54.8452 23.3475L54.8452 29.4781L22.21 29.4781L22.21 23.3475Z" fill="#D7E9FF" fill-opacity="1.000000" fill-rule="nonzero"/>
		<path id="Vector" d="M14.0562 54.7423C13.7144 54.7423 13.4375 55.019 13.4375 55.3608C13.4375 55.7028 13.7144 55.9794 14.0562 55.9794L30.3652 55.9794C30.707 55.9794 30.9839 55.7026 30.9839 55.3608C30.9839 55.0189 30.707 54.7423 30.3652 54.7423L14.0562 54.7423Z" fill="#1A2E35" fill-opacity="1.000000" fill-rule="nonzero"/>
		<path id="Vector" d="M26.6973 4.01831L27.8018 4.01831C28.1431 4.01831 28.4199 3.74158 28.4199 3.39978C28.4199 3.05798 28.1431 2.78125 27.8018 2.78125L26.6973 2.78125C26.3555 2.78125 26.0786 3.05798 26.0786 3.39978C26.0786 3.74158 26.3555 4.01831 26.6973 4.01831Z" fill="#1A2E35" fill-opacity="1.000000" fill-rule="nonzero"/>
		<path id="Vector" d="M16.6196 4.01831L23.7983 4.01831C24.1396 4.01831 24.4165 3.74158 24.4165 3.39978C24.4165 3.05798 24.1396 2.78125 23.7983 2.78125L16.6196 2.78125C16.2778 2.78125 16.001 3.05798 16.001 3.39978C16.001 3.74158 16.2778 4.01831 16.6196 4.01831Z" fill="#1A2E35" fill-opacity="1.000000" fill-rule="nonzero"/>
		<path id="Vector" d="M52.3706 17.6722L39.8848 17.6722L39.8848 4.02051C39.8848 1.974 38.2202 0.309204 36.1738 0.309204C30.0918 0.309204 14.3335 0.309204 8.24805 0.309204C6.20117 0.309204 4.53662 1.974 4.53662 4.02051L4.53662 55.9792C4.53662 58.0258 6.20117 59.6906 8.24805 59.6906L36.1733 59.6906C38.2202 59.6906 39.8848 58.0258 39.8848 55.9792L39.8848 43.5647L52.3706 43.5647C54.0762 43.5647 55.4634 42.1772 55.4634 40.4719C55.4634 33.2803 55.4634 27.8474 55.4634 20.7651C55.4634 19.0598 54.0762 17.6722 52.3706 17.6722ZM54.2266 20.7651L54.2266 22.7289L22.8286 22.7289L22.8286 18.9094L52.3706 18.9094C53.394 18.9094 54.2266 19.7418 54.2266 20.7651ZM54.2266 28.8595L22.8286 28.8595L22.8286 23.9659L54.2266 23.9659L54.2266 28.8595ZM30.1963 1.54639L30.1963 3.39722C30.1963 4.42053 29.3638 5.25293 28.3403 5.25293L16.0806 5.25293C15.0576 5.25293 14.2251 4.42053 14.2251 3.39722L14.2251 1.54639L30.1963 1.54639ZM38.6479 55.9794C38.6479 57.3439 37.5376 58.4535 36.1738 58.4535L8.24805 58.4535C6.8833 58.4535 5.77344 57.3439 5.77344 55.9794L5.77344 4.02051C5.77344 2.65601 6.88379 1.54639 8.24805 1.54639L12.9878 1.54639L12.9878 3.39722C12.9878 5.10254 14.3755 6.48999 16.0806 6.48999L28.3403 6.48999C30.0454 6.48999 31.4331 5.10254 31.4331 3.39722L31.4331 1.54639L36.1733 1.54639C37.5376 1.54639 38.6475 2.65601 38.6475 4.02051L38.6475 17.6722L22.8286 17.6722L22.8286 14.8822C22.8286 14.5402 22.5518 14.2637 22.21 14.2637C21.8687 14.2637 21.5913 14.5403 21.5913 14.8822L21.5913 46.3481C21.5913 46.6902 21.8687 46.9667 22.21 46.9667C22.5518 46.9667 22.8286 46.6901 22.8286 46.3481L22.8286 43.5646L38.6475 43.5646L38.6475 55.9794L38.6479 55.9794ZM52.3706 42.3276L22.8286 42.3276L22.8286 34.7671L43.2788 34.7671C43.6206 34.7671 43.8975 34.4905 43.8975 34.1486C43.8975 33.8066 43.6206 33.5302 43.2788 33.5302L22.8286 33.5302L22.8286 30.0967L54.2266 30.0967L54.2266 40.4719C54.2266 41.4952 53.394 42.3276 52.3706 42.3276Z" fill="#1A2E35" fill-opacity="1.000000" fill-rule="nonzero"/>
		<path id="Vector" d="M43.2788 37.657L41.5068 37.657C41.165 37.657 40.8882 37.9337 40.8882 38.2755C40.8882 38.6174 41.165 38.894 41.5068 38.894L43.2788 38.894C43.6201 38.894 43.897 38.6173 43.897 38.2755C43.897 37.9337 43.6201 37.657 43.2788 37.657Z" fill="#1A2E35" fill-opacity="1.000000" fill-rule="nonzero"/>
		<path id="Vector" d="M38.2134 37.657L36.4414 37.657C36.0996 37.657 35.8228 37.9337 35.8228 38.2755C35.8228 38.6174 36.0996 38.894 36.4414 38.894L38.2134 38.894C38.5547 38.894 38.8315 38.6173 38.8315 38.2755C38.8315 37.9337 38.5547 37.657 38.2134 37.657Z" fill="#1A2E35" fill-opacity="1.000000" fill-rule="nonzero"/>
		<path id="Vector" d="M33.1479 37.657L31.376 37.657C31.0342 37.657 30.7573 37.9337 30.7573 38.2755C30.7573 38.6174 31.0342 38.894 31.376 38.894L33.1479 38.894C33.4893 38.894 33.7661 38.6173 33.7661 38.2755C33.7666 37.9337 33.4893 37.657 33.1479 37.657Z" fill="#1A2E35" fill-opacity="1.000000" fill-rule="nonzero"/>
		<path id="Vector" d="M28.083 37.657L26.311 37.657C25.9692 37.657 25.6924 37.9337 25.6924 38.2755C25.6924 38.6174 25.9692 38.894 26.311 38.894L28.083 38.894C28.4243 38.894 28.7012 38.6173 28.7012 38.2755C28.7017 37.9337 28.4243 37.657 28.083 37.657Z" fill="#1A2E35" fill-opacity="1.000000" fill-rule="nonzero"/>
	</g>
</svg>
