<svg width="40.000000" height="14.686035" viewBox="0 0 40 14.686" fill="none" xmlns="http://www.w3.org/2000/svg" xmlns:xlink="http://www.w3.org/1999/xlink">
	<desc>
			Created with Pixso.
	</desc>
	<defs/>
	<path id="Union" d="M14.6226 5.90414L14.6226 12.8268C14.6929 13.4466 15.2817 14.686 17.0732 14.686L19.6509 14.686L19.6509 13.2916L17.0732 13.2916C16.707 13.2916 15.9746 13.0888 15.9746 12.2775L15.9746 5.90414L19.0171 5.90414L19.0171 4.38297L15.9746 4.38297L15.9746 1.84045L14.6226 1.84045L14.6226 4.38297L12.7632 4.38297L12.7632 5.90414L14.6226 5.90414Z" clip-rule="evenodd" fill="#000000" fill-opacity="1.000000" fill-rule="evenodd"/>
	<path id="Union" d="M34.9717 5.90414L34.9717 12.8268C35.042 13.4466 35.6309 14.686 37.4224 14.686L40 14.686L40 13.2916L37.4224 13.2916C37.0562 13.2916 36.3237 13.0888 36.3237 12.2775L36.3237 5.90414L39.3662 5.90414L39.3662 4.38297L36.3237 4.38297L36.3237 1.84045L34.9717 1.84045L34.9717 4.38297L33.1123 4.38297L33.1123 5.90414L34.9717 5.90414Z" clip-rule="evenodd" fill="#000000" fill-opacity="1.000000" fill-rule="evenodd"/>
	<path id="Union" d="M0 0L1.72314 0L5.7041 6.95178L9.76318 0L11.5269 0L6.47656 8.6749L6.47754 8.6749L6.47754 14.686L4.75732 14.686L4.75732 8.6749L4.75342 8.6749L0 0Z" clip-rule="evenodd" fill="#38BFF2" fill-opacity="1.000000" fill-rule="evenodd"/>
	<path id="Union" d="M20.3491 0L22.0723 0L26.0532 6.95178L30.1123 0L31.876 0L26.8257 8.6749L26.8267 8.6749L26.8267 14.686L25.1064 14.686L25.1064 8.6749L25.1025 8.6749L20.3491 0Z" clip-rule="evenodd" fill="#F15525" fill-opacity="1.000000" fill-rule="evenodd"/>
</svg>
